<?xml version="1.0" encoding="utf-8"?>
<!-- Generator: Adobe Illustrator 19.2.1, SVG Export Plug-In . SVG Version: 6.00 Build 0)  -->
<svg version="1.1" id="Layer_1" xmlns="http://www.w3.org/2000/svg" xmlns:xlink="http://www.w3.org/1999/xlink" x="0px" y="0px"
	 viewBox="0 0 60 60" style="enable-background:new 0 0 60 60;" xml:space="preserve">
<g>
	<g>
		<rect x="14.2" y="46" width="31.9" height="4"/>
	</g>
	<g>
		<rect x="24.1" y="10" width="11.9" height="4"/>
	</g>
	<g>
		<path d="M44.1,4v52h-28V4H44.1 M48.1,0h-36v60h36V0L48.1,0z"/>
	</g>
	<g>
		<path d="M30.1,38c-4.4,0-8-3.6-8-8c0-4.4,3.6-8,8-8s8,3.6,8,8C38.1,34.4,34.5,38,30.1,38z M30.1,26c-2.2,0-4,1.8-4,4s1.8,4,4,4
			c2.2,0,4-1.8,4-4S32.3,26,30.1,26z"/>
	</g>
	<g>
		<path d="M55.2,37.2l-2.8-2.8c1.2-1.2,1.8-2.7,1.8-4.3c0-1.6-0.6-3.2-1.8-4.3l2.8-2.8c1.9,1.9,3,4.5,3,7.2
			C58.2,32.7,57.1,35.2,55.2,37.2z"/>
	</g>
	<g>
		<path d="M4.8,37.2c-1.9-1.9-3-4.5-3-7.2c0-2.7,1.1-5.2,3-7.2l2.8,2.8c-1.2,1.2-1.8,2.7-1.8,4.3c0,1.6,0.6,3.2,1.8,4.3L4.8,37.2z"
			/>
	</g>
</g>
</svg>
