<?xml version="1.0" encoding="utf-8"?>
<!-- Generator: Adobe Illustrator 19.2.1, SVG Export Plug-In . SVG Version: 6.00 Build 0)  -->
<svg version="1.1" id="Layer_1" xmlns="http://www.w3.org/2000/svg" xmlns:xlink="http://www.w3.org/1999/xlink" x="0px" y="0px"
	 viewBox="0 0 32 32" style="enable-background:new 0 0 32 32;" xml:space="preserve">
<path d="M30.1,13.5C30.1,13.5,30.1,13.5,30.1,13.5C31.3,12.3,32,10.7,32,9c0-1.7-0.7-3.4-1.9-4.6c-1.2-1.2-2.9-1.9-4.6-1.9
	c-1.7,0-3.4,0.7-4.6,1.9c0,0,0,0,0,0L20,5.3c-0.1,0.1-0.1,0.1-0.1,0.2c-1.2-0.4-2.6-0.6-3.9-0.6c-1.3,0-2.6,0.2-3.8,0.6
	c0-0.1-0.1-0.1-0.1-0.2l-0.9-0.9c0,0,0,0,0,0C9.8,3.1,8.2,2.5,6.5,2.5c-1.7,0-3.4,0.7-4.6,1.9C0.7,5.6,0,7.2,0,9
	c0,1.7,0.7,3.4,1.9,4.6c0,0,0,0,0,0l0.9,0.9c0,0,0.1,0.1,0.2,0.1c-0.4,1.2-0.6,2.5-0.6,3.8v6.7v3.7v0.7H4h3.8h16.3h3.8h1.5v-0.7
	v-3.7v-6.7c0-1.3-0.2-2.6-0.5-3.8c0.1,0,0.2-0.1,0.3-0.2L30.1,13.5z M28,18.4v4.8c-0.6-0.7-1.3-1.3-2.1-1.9v-2.9c0-5.5-4.5-10-10-10
	s-10,4.5-10,10v2.9c-0.7,0.6-1.4,1.2-2.1,1.9v-4.8c0-6.6,5.4-12,12-12S28,11.8,28,18.4z M26.6,10C26.6,10,26.6,10.1,26.6,10
	c-0.7-0.7-1.4-1.5-2.2-2.1c0,0,0,0,0,0c0.6-0.6,1.6-0.6,2.2,0C26.9,8.2,27,8.5,27,9C27,9.4,26.9,9.7,26.6,10z M18.9,18.2
	c-0.1-1.5-1.4-2.8-3-2.8c-1.6,0-2.8,1.2-3,2.8c-0.7,0.1-1.4,0.3-2.1,0.5v-0.3c0-2.8,2.3-5,5-5s5,2.3,5,5v0.3
	C20.3,18.5,19.6,18.3,18.9,18.2z M17.4,18c-0.5,0-1-0.1-1.5-0.1c-0.5,0-1,0-1.5,0.1c0.2-0.6,0.8-1.1,1.5-1.1S17.2,17.3,17.4,18z
	 M22.4,18.4c0-3.6-2.9-6.5-6.5-6.5s-6.5,2.9-6.5,6.5v0.9c-0.7,0.3-1.4,0.7-2,1.1v-1.9c0-4.7,3.8-8.5,8.5-8.5s8.5,3.8,8.5,8.5v1.9
	c-0.7-0.4-1.3-0.8-2-1.1V18.4z M5,9c0-0.4,0.2-0.8,0.4-1.1C6,7.3,7,7.3,7.5,7.9C6.7,8.5,6,9.2,5.4,10C5.1,9.7,5,9.3,5,9z M2.9,12.5
	C2.9,12.5,2.9,12.5,2.9,12.5c-2-2-2-5.1,0-7.1c0.9-0.9,2.2-1.5,3.6-1.5c1.3,0,2.6,0.5,3.6,1.5c0,0,0,0,0,0L10.6,6
	C10,6.3,9.3,6.6,8.7,7c0-0.1-0.1-0.1-0.1-0.2C8,6.3,7.3,6,6.5,6S4.9,6.3,4.4,6.8C3.8,7.4,3.5,8.2,3.5,9s0.3,1.5,0.9,2.1
	c0.1,0.1,0.1,0.1,0.2,0.1c-0.4,0.6-0.7,1.3-1,1.9L2.9,12.5z M11.1,28.1c1.4-1.1,3.1-1.7,4.8-1.7s3.5,0.6,4.8,1.7H11.1z M22.9,28.1
	c-1.8-2-4.3-3.1-6.9-3.1c-2.7,0-5.2,1.1-6.9,3.1H6.4c2.1-3.2,5.6-5.2,9.5-5.2c3.9,0,7.5,2,9.5,5.2H22.9z M27.1,28.1
	c-2.3-4.1-6.5-6.7-11.2-6.7c-4.7,0-9,2.5-11.2,6.7H3.9v-2.5c2.8-3.9,7.3-6.2,12-6.2c4.8,0,9.2,2.3,12,6.2v2.5H27.1z M27.3,11.2
	c0.1,0,0.2-0.1,0.3-0.2c0.6-0.6,0.9-1.3,0.9-2.1s-0.3-1.5-0.9-2.1C27.1,6.3,26.3,6,25.5,6c-0.8,0-1.5,0.3-2.1,0.9
	c-0.1,0.1-0.1,0.2-0.2,0.2c-0.6-0.4-1.3-0.7-1.9-1L22,5.4c0,0,0,0,0,0c0.9-0.9,2.2-1.5,3.6-1.5c1.3,0,2.6,0.5,3.6,1.5
	c2,2,2,5.1,0,7.1c0,0,0,0,0,0l-0.7,0.7C28.1,12.5,27.7,11.9,27.3,11.2z"/>
</svg>
