<?xml version="1.0" encoding="utf-8"?>
<!-- Generator: Adobe Illustrator 19.2.1, SVG Export Plug-In . SVG Version: 6.00 Build 0)  -->
<svg version="1.1" id="Layer_1" xmlns="http://www.w3.org/2000/svg" xmlns:xlink="http://www.w3.org/1999/xlink" x="0px" y="0px"
	 viewBox="0 0 32 32" style="enable-background:new 0 0 32 32;" xml:space="preserve">
<style type="text/css">
	.st0{display:none;}
	.st1{display:inline;opacity:5.000000e-02;fill:#010101;enable-background:new    ;}
	.st2{display:inline;fill:none;stroke:#B4B4B4;stroke-width:5.000000e-02;stroke-miterlimit:10;}
	.st3{fill:#DDDDDD;}
</style>
<g id="Layer_1_1_" class="st0">
	<path class="st1" d="M16,2C8.3,2,2,8.3,2,16s6.3,14,14,14s14-6.3,14-14S23.7,2,16,2z M16,24c-4.4,0-8-3.6-8-8s3.6-8,8-8s8,3.6,8,8
		S20.4,24,16,24z"/>
	<line class="st2" x1="0" y1="16" x2="32" y2="16"/>
	<line class="st2" x1="16" y1="0" x2="16" y2="32"/>
	<line class="st2" x1="0" y1="0" x2="32" y2="32"/>
	<line class="st2" x1="32" y1="0" x2="0" y2="32"/>
	<rect x="2" y="2" class="st2" width="28" height="28"/>
	<rect x="8" y="8" class="st2" width="16" height="16"/>
	<rect x="5" y="5" class="st2" width="22" height="22"/>
</g>
<g>
	<rect x="2.3" y="10.8" class="st3" width="6" height="18.2"/>
	<circle class="st3" cx="5.3" cy="5.2" r="3.3"/>
	<path class="st3" d="M25.3,10.7c-3.3-1-5.8,0.4-7.7,2.7v-2.5h-6V29h6V18.5c0.4-2.2,1.8-3.4,3.9-3.4c2.5,0,2.6,2.4,2.6,2.4V29h6
		V17.5C30,14.7,28.7,11.7,25.3,10.7z"/>
</g>
</svg>
