<?xml version="1.0" encoding="utf-8"?>
<!-- Generator: Adobe Illustrator 19.2.1, SVG Export Plug-In . SVG Version: 6.00 Build 0)  -->
<svg version="1.1" id="Layer_1" xmlns="http://www.w3.org/2000/svg" xmlns:xlink="http://www.w3.org/1999/xlink" x="0px" y="0px"
	 viewBox="0 0 32 32" style="enable-background:new 0 0 32 32;" xml:space="preserve">
<path d="M20.3,5.6c-1.5-0.7-3.6-2.5-3.6-4.8c0-0.4-0.3-0.7-0.7-0.7l0,0l0,0c-0.4,0-0.7,0.3-0.7,0.7c0,2.3-2.2,4.1-3.6,4.8
	c-5.3,1.8-9.1,6.9-9.1,12.8V25v3.7v0.7h1.5h3.8h16.3h3.8h1.5v-0.7V25v-6.7C29.4,12.4,25.6,7.4,20.3,5.6z M15.9,3.5
	c0.3,0.5,0.7,1,1.1,1.4c-0.4,0-0.7,0-1.1,0c-0.4,0-0.7,0-1.1,0C15.2,4.5,15.6,4,15.9,3.5z M15.9,6.3c6.6,0,12,5.4,12,12v4.8
	c-0.6-0.7-1.3-1.3-2.1-1.9v-2.9c0-5.5-4.5-10-10-10c-5.5,0-10,4.5-10,10v2.9c-0.7,0.6-1.4,1.2-2.1,1.9v-4.8
	C3.9,11.7,9.3,6.3,15.9,6.3z M14.4,18.4c0-0.8,0.7-1.5,1.5-1.5c0.8,0,1.5,0.7,1.5,1.5c0,2-0.2,3-1.5,4.1
	C14.6,21.4,14.4,20.3,14.4,18.4z M18.9,18.1c-0.1-1.5-1.4-2.8-3-2.8c-1.6,0-2.8,1.2-3,2.8c-0.7,0.1-1.4,0.3-2.1,0.5v-0.3
	c0-2.8,2.3-5,5-5s5,2.3,5,5v0.3C20.3,18.4,19.6,18.3,18.9,18.1z M22.4,18.4c0-3.6-2.9-6.5-6.5-6.5c-3.6,0-6.5,2.9-6.5,6.5v0.9
	c-0.7,0.3-1.4,0.7-2,1.1v-1.9c0-4.7,3.8-8.5,8.5-8.5s8.5,3.8,8.5,8.5v1.9c-0.7-0.4-1.3-0.8-2-1.1V18.4z M3.9,28v-2.6
	c2.2-3,5.5-5.1,9.1-5.9c0.1,0.7,0.2,1.4,0.5,2c-3.7,0.7-6.9,3.1-8.8,6.4H3.9z M11.1,28c1.4-1.1,3.1-1.7,4.8-1.7
	c1.8,0,3.5,0.6,4.8,1.7H11.1z M22.8,28c-1.8-2-4.3-3.1-6.9-3.1c-2.7,0-5.2,1.1-6.9,3.1H6.4c1.8-2.8,4.7-4.6,8-5.1
	c0.3,0.3,0.7,0.7,1.2,1c0,0,0,0,0,0c0,0,0.1,0,0.1,0.1c0,0,0,0,0.1,0c0.1,0,0.1,0,0.2,0c0,0,0,0,0,0c0,0,0,0,0,0c0,0,0,0,0,0
	c0,0,0,0,0,0c0.1,0,0.1,0,0.2,0c0,0,0,0,0.1,0c0,0,0.1,0,0.1-0.1c0,0,0,0,0,0c0.5-0.3,0.9-0.6,1.2-1c3.3,0.5,6.2,2.3,8,5.1H22.8z
	 M27.1,28c-1.8-3.4-5-5.7-8.8-6.4c0.3-0.6,0.4-1.3,0.5-2c3.6,0.7,6.9,2.8,9.1,5.9V28H27.1z"/>
</svg>
