<?xml version="1.0" encoding="utf-8"?>
<!-- Generator: Adobe Illustrator 19.2.1, SVG Export Plug-In . SVG Version: 6.00 Build 0)  -->
<svg version="1.1" id="Layer_1" xmlns="http://www.w3.org/2000/svg" xmlns:xlink="http://www.w3.org/1999/xlink" x="0px" y="0px"
	 viewBox="0 0 32 32" style="enable-background:new 0 0 32 32;" xml:space="preserve">
<style type="text/css">
	.st0{display:none;}
	.st1{display:inline;opacity:5.000000e-02;fill:#010101;enable-background:new    ;}
	.st2{display:inline;fill:none;stroke:#B4B4B4;stroke-width:5.000000e-02;stroke-miterlimit:10;}
	.st3{fill:#DDDDDD;}
</style>
<g id="Layer_1_1_" class="st0">
	<path class="st1" d="M16,2C8.3,2,2,8.3,2,16s6.3,14,14,14s14-6.3,14-14S23.7,2,16,2z M16,24c-4.4,0-8-3.6-8-8s3.6-8,8-8s8,3.6,8,8
		S20.4,24,16,24z"/>
	<line class="st2" x1="0" y1="16" x2="32" y2="16"/>
	<line class="st2" x1="16" y1="0" x2="16" y2="32"/>
	<line class="st2" x1="0" y1="0" x2="32" y2="32"/>
	<line class="st2" x1="32" y1="0" x2="0" y2="32"/>
	<rect x="2" y="2" class="st2" width="28" height="28"/>
	<rect x="8" y="8" class="st2" width="16" height="16"/>
	<rect x="5" y="5" class="st2" width="22" height="22"/>
</g>
<g id="Layer_2">
	<g>
		<path class="st3" d="M30,11.4c0,3.1,0,6.2,0,9.2c-0.1,0.9-0.2,1.7-0.3,2.6c-0.4,3.5-3,6-6.5,6.5c-0.9,0.1-1.7,0.2-2.6,0.3
			c-3.1,0-6.2,0-9.2,0c-0.9-0.1-1.7-0.2-2.6-0.3c-3.5-0.4-6-2.9-6.5-6.4c-0.1-0.9-0.2-1.8-0.3-2.7c0-3.1,0-6.2,0-9.2
			c0.1-0.9,0.2-1.8,0.3-2.7c0.5-3.5,2.9-5.9,6.4-6.4c0.9-0.1,1.8-0.2,2.7-0.3c3.1,0,6.2,0,9.2,0c0.9,0.1,1.8,0.2,2.8,0.3
			c3.4,0.5,5.9,3,6.4,6.5C29.8,9.6,29.9,10.5,30,11.4z M4.4,16C4.5,16,4.5,16,4.4,16c0.1,1.1,0.1,2.1,0.1,3.2s0.1,2.2,0.1,3.3
			c0.1,2.7,2.1,4.8,4.7,4.8c4.4,0.1,8.8,0.2,13.2,0c2.8-0.1,4.6-1.9,4.7-4.7c0.2-4.4,0.1-8.8,0-13.2c-0.1-2.2-1.3-3.9-3.7-4.5
			c-0.8-0.2-1.7-0.3-2.6-0.3c-3.8,0-7.7,0-11.5,0.1c-2.6,0-4.6,2.1-4.7,4.8C4.6,11.7,4.5,13.8,4.4,16z"/>
		<path class="st3" d="M8.9,15.9c-0.1-3.8,3.2-7.2,7.2-7.1C20,8.9,23.2,12,23.2,16S20,23.1,16,23.1C12.1,23.2,8.7,19.9,8.9,15.9z
			 M16,20.7c2.6,0,4.7-2,4.7-4.7c0-2.6-2-4.6-4.6-4.7c-2.6,0-4.7,2-4.7,4.7C11.3,18.6,13.4,20.7,16,20.7z"/>
		<path class="st3" d="M23.5,10.2c-0.9,0-1.6-0.7-1.6-1.6S22.6,7,23.6,7c0.9,0,1.6,0.7,1.6,1.7C25.1,9.5,24.4,10.2,23.5,10.2z"/>
	</g>
</g>
</svg>
